<?xml version="1.0" standalone="no"?>
<!DOCTYPE svg PUBLIC "-//W3C//DTD SVG 1.1//EN" "http://www.w3.org/Graphics/SVG/1.1/DTD/svg11.dtd" >
<!--
2013-9-30: Created.
-->
<svg>
<metadata>
Created by iconfont
</metadata>
<defs>

<font id="iconfont" horiz-adv-x="1024" >
  <font-face
    font-family="iconfont"
    font-weight="500"
    font-stretch="normal"
    units-per-em="1024"
    ascent="896"
    descent="-128"
  />
    <missing-glyph />
    
    <glyph glyph-name="huafeichongzhi" unicode="&#58886;" d="M760.567742 795.483871l-497.135484 0C204.849548 795.483871 156.903226 753.681548 156.903226 702.580645l0-805.177806C156.903226-153.698065 204.849548-195.483871 263.432258-195.483871l497.135484 0c58.599226 0 106.529032 41.785806 106.529032 92.88671L867.096774 702.580645C867.096774 753.681548 819.166968 795.483871 760.567742 795.483871zM369.96129 749.024 654.03871 749.024l0-30.967742L369.96129 718.056258 369.96129 749.024zM512-133.564903c-39.225806 0-71.019355 27.730581-71.019355 61.952 0 34.188387 31.793548 61.918968 71.019355 61.918968 39.242323 0 71.019355-27.730581 71.019355-61.918968C583.019355-105.834323 551.242323-133.564903 512-133.564903zM796.077419 52.258065 227.922581 52.258065 227.922581 671.596387l568.154839 0L796.077419 52.258065z"  horiz-adv-x="1024" />

    
    <glyph glyph-name="kehu" unicode="&#58975;" d="M514.134105 831.931822c-135.506207 0-245.331521-111.928209-245.331521-250.033613 0-138.167826 109.825314-250.098082 245.331521-250.098082s245.329475 111.929232 245.329475 250.098082C759.46358 720.003614 649.640312 831.931822 514.134105 831.931822zM514.06759 403.153222c-96.772021 0-175.22686 79.970356-175.22686 178.679495 0 98.643648 78.45484 178.614004 175.22686 178.614004 96.769974 0 175.22686-79.969333 175.22686-178.614004C689.295474 483.124602 610.838587 403.153222 514.06759 403.153222zM153.750221 73.613834c0 0-4.66116-36.878932 5.804193-54.662971 0 0 14.106276-19.392676 37.462217-16.154935 0 0 33.577746 2.092661 35.734876 43.178405 0 0-0.932232 42.061978 15.174608 87.513146 0 0 14.196327 42.360783 40.972157 76.674287 0 0 34.68087 50.148144 98.770538 82.050738 0 0 68.955488 37.71088 152.392806 28.457122 0 0 58.276265-2.675946 118.189819-38.325887 0 0 82.344426-38.231743 123.692137-154.924465 0 0 12.657274-38.390355 13.153578-75.022671 0 0-5.5279-46.248324 39.83117-49.909713 0 0 39.841404-2.973728 39.395242 50.131771 0 0 2.068102 97.27958-59.06421 187.29471 0 0-54.68446 88.526219-151.797241 129.422651 0 0-185.196932 82.488713-349.159238-27.043936C314.303894 342.289016 167.271166 249.23876 153.750221 73.613834z"  horiz-adv-x="1024" />

    
    <glyph glyph-name="licai" unicode="&#58947;" d="M756.758 177.417c0 0 0 0 0 0l-0.1 0.3h-103.59v62.993h103.59v0.3c0 0 0 0 0.1 0 12.398 0 22.498 10.1 22.498 22.498 0 12.398-10.1 22.498-22.498 22.498 0 0 0 0-0.1 0v0h-88.192l96.791 178.183c3.5 4.8 5.699 10.699 5.699 17.098 0 15.998-12.999 28.997-28.997 28.997-12.499 0-23.098-7.999-27.197-19.098h-0.199c0 0-83.692-163.384-87.492-174.383h-1.201c-5.399 13.699-91.391 174.383-91.391 174.383h-0.199c-3.9 11.099-14.399 19.098-26.897 19.098-15.798 0-28.597-12.799-28.597-28.597 0-5.899 1.8-11.399 4.9-15.998l-0.1-0.1 96.291-179.582h-89.991c-12.398 0-22.498-10.1-22.498-22.498s10.1-22.498 22.498-22.498v-0.3h106.79v-62.993h-106.79v-0.3c-12.398 0-22.498-10.1-22.498-22.498s10.1-22.498 22.498-22.498v-0.3h106.79v-90.491h0.6c-0.4-1.9-0.6-3.8-0.6-5.799 0-15.599 12.599-28.197 28.197-28.197s28.197 12.599 28.197 28.197c0 2-0.2 3.9-0.6 5.799h0.7v90.491h103.59v0.3c0 0 0 0 0.1 0 12.398 0 22.498 10.1 22.498 22.498-0.1 12.499-10.199 22.498-22.598 22.498zM544.478 602.376c-51.895 32.597-92.89 108.29-92.89 158.585 0 71.593 85.592 86.492 171.785 86.492s177.383-18.698 177.383-90.291c0-50.695-40.096-121.488-94.391-154.785h74.393c41.296 46.896 66.994 107.19 66.994 159.185 0 102.89-100.49 134.387-224.48 134.387s-224.479-31.497-224.48-134.387c0-51.995 25.698-112.289 67.094-159.185h78.594zM786.655 638.572l-36.397-20.998-10.199-15.199c186.482-67.894 333.168-286.573 333.168-445.258 0-191.182-205.48-234.778-449.958-234.778s-450.057 41.596-450.056 232.778c0 159.685 144.986 380.864 333.068 447.258l-44.096 37.196c-203.781-84.392-350.867-313.769-350.867-490.853 0-221.179 229.178-276.774 511.951-276.774s511.951 55.596 511.951 276.774c0 176.483-145.986 404.662-348.567 489.852z"  horiz-adv-x="1333" />

    
    <glyph glyph-name="qia" unicode="&#58891;" d="M926.72-20.48H97.792c-13.312 0-26.112 2.56-37.888 7.68-11.776 5.12-22.016 11.776-31.232 20.992-8.704 9.216-15.872 19.456-20.992 31.232-5.12 12.288-7.68 25.088-7.68 38.4V690.688c0 13.312 2.56 26.112 7.68 38.4 5.12 11.776 11.776 22.016 20.992 31.232s19.456 15.872 31.232 20.992c12.288 5.12 24.576 7.68 37.888 7.68h828.928c13.312 0 26.112-2.56 37.888-7.68 11.776-5.12 22.016-11.776 31.232-20.992 8.704-9.216 15.872-19.456 20.992-31.232 5.12-12.288 7.68-25.088 7.68-38.4v-612.864c0-13.312-2.56-26.112-7.68-38.4-5.12-11.776-11.776-22.016-20.992-31.232-8.704-9.216-19.456-15.872-31.232-20.992-11.776-5.12-24.576-7.68-37.888-7.68z m-828.416 759.808c-26.624 0-48.64-22.016-48.64-49.152v-612.864c0-27.136 22.016-49.152 48.64-49.152H927.232c26.624 0 48.64 22.016 48.64 49.152V690.688c0 27.136-22.016 49.152-48.64 49.152h-828.928v-0.512z m-73.216-170.496h975.36v-50.688h-975.36v50.688z m902.656-492.032H609.792v197.632h317.952v-197.632z m-268.8 49.152h220.16v99.328h-220.16v-99.328z"  horiz-adv-x="1024" />

    
    <glyph glyph-name="fenlei" unicode="&#58926;" d="M212.460127 577.309809c33.242061 0 59.98024 26.738179 59.98024 59.98024 0 33.242061-26.738179 59.98024-59.98024 59.98024-33.242061 0-59.98024-26.738179-59.98024-59.98024 0-33.242061 26.738179-59.98024 59.98024-59.98024z m180.663373 0h417.693719c33.242061 0 59.98024 26.738179 59.98024 59.98024 0 33.242061-26.738179 59.98024-59.98024 59.98024H393.1235c-33.242061 0-59.98024-26.738179-59.98024-59.98024 0-33.242061 26.738179-59.98024 59.98024-59.98024zM213.905434 458.071983c-33.242061 0-59.98024-26.738179-59.98024-59.98024 0-33.242061 26.738179-59.98024 59.98024-59.98024 33.242061 0 59.98024 26.738179 59.98024 59.98024 0 32.519407-26.738179 59.98024-59.98024 59.98024z m597.634439 0H394.568807c-33.242061 0-59.98024-26.738179-59.98024-59.98024 0-33.242061 26.738179-59.98024 59.98024-59.98024h417.693719c33.242061 0 59.98024 26.738179 59.98024 59.98024-0.722653 32.519407-27.460833 59.98024-60.702893 59.98024zM213.905434 218.151023c-33.242061 0-59.98024-26.738179-59.98024-59.98024 0-33.242061 26.738179-59.98024 59.98024-59.98024 33.242061 0 59.98024 26.738179 59.98024 59.98024 0 33.242061-26.738179 59.98024-59.98024 59.98024z m597.634439 0H394.568807c-33.242061 0-59.98024-26.738179-59.98024-59.98024 0-33.242061 26.738179-59.98024 59.98024-59.98024h417.693719c33.242061 0 59.98024 26.738179 59.98024 59.98024-0.722653 33.242061-27.460833 59.98024-60.702893 59.98024z"  horiz-adv-x="1024" />

    
    <glyph glyph-name="xiaoxi" unicode="&#58892;" d="M910.221654 865.555617H113.783463c-62.805418 0-113.783463-50.971905-113.783463-113.766066v-568.860009c0-62.805418 50.978045-113.777323 113.783463-113.777323h113.607454v-115.012454c0-21.327748 11.9471-40.504506 31.061436-49.948599 7.90197-3.811816 16.321734-5.745864 24.684192-5.745864 12.009522 0 23.893176 3.919263 33.848923 11.548011l189.730179 159.157882h403.50703c62.805418 0 113.783463 50.971905 113.783463 113.777323V751.788527c-0.001023 62.794162-50.979068 113.76709-113.784486 113.76709z m56.888661-682.627099c0-31.459502-25.424042-56.888661-56.888661-56.888661l-412.95624 0.051165c-6.257517 0-12.345166-2.036379-17.293875-5.859451L284.216133-45.92982V97.663576c0 15.69547-12.737092 28.376281-28.381397 28.376281H113.783463c-31.465642 0-56.894801 25.429159-56.894802 56.888661V751.788527c0 31.459502 25.429159 56.877405 56.894802 56.877405h796.438191c31.465642 0 56.888661-25.417903 56.888661-56.877405v-568.860009zM284.444331 524.238998c-31.453363 0-56.883545-25.429159-56.883545-56.883545 0-31.459502 25.429159-56.888661 56.883545-56.888661 31.459502 0 56.888661 25.429159 56.888661 56.888661 0 31.454386-25.429159 56.883545-56.888661 56.883545z m227.554646 0c-31.459502 0-56.888661-25.429159-56.888662-56.883545 0-31.459502 25.429159-56.888661 56.888662-56.888661 31.465642 0 56.894801 25.429159 56.894801 56.888661 0 31.454386-25.429159 56.883545-56.894801 56.883545z m227.555669 0c-31.453363 0-56.888661-25.429159-56.888662-56.883545 0-31.459502 25.435299-56.888661 56.888662-56.888661 31.459502 0 56.888661 25.429159 56.888661 56.888661 0 31.454386-25.429159 56.883545-56.888661 56.883545z"  horiz-adv-x="1024" />

    
    <glyph glyph-name="zuji" unicode="&#58943;" d="M487.640141 699.411495a17.094638 17.094638 0 0 1-17.094638-17.094638v-338.473828a17.094638 17.094638 0 0 1 17.094638-17.094638h239.324929a17.094638 17.094638 0 0 1 0 34.189276h-222.230291V682.316857a16.581799 16.581799 0 0 1-17.094638 17.094638zM510.717902 895.999829A510.958723 510.958723 0 0 1 35.486972 573.765907v188.041016a17.094638 17.094638 0 0 1-34.189275 0v-246.162784a17.094638 17.094638 0 0 1 17.094637-17.094638h247.872248a17.094638 17.094638 0 0 1 0 34.189275H55.145806a13.761183 13.761183 0 0 1 3.418927 5.983124 478.649857 478.649857 0 1 0-20.513565-222.230291 17.282679 17.282679 0 0 1-34.189276-5.128392A511.984401 511.984401 0 1 1 510.717902 895.999829z"  horiz-adv-x="1024" />

    
    <glyph glyph-name="shuidianfei" unicode="&#59044;" d="M842.830769 470.646154C748.307692 620.307692 575.015385 769.969231 527.753846 809.353846 519.876923 817.230769 512 817.230769 512 817.230769c-7.876923 0-7.876923 0-15.753846-7.876923 0 0-94.523077-70.892308-189.046154-173.292308-55.138462-55.138462-94.523077-118.153846-126.030769-165.415384C141.784615 399.753846 118.153846 344.615385 118.153846 297.353846c0-212.676923 173.292308-385.969231 393.846154-385.969231 212.676923 0 393.846154 173.292308 393.846154 385.969231 0 47.261538-23.630769 102.4-63.015385 173.292308z m-70.892307-425.353846c-70.892308-70.892308-165.415385-110.276923-259.938462-110.276923-196.923077 0-362.338462 165.415385-362.338462 362.338461 0 47.261538 31.507692 118.153846 63.015385 165.415385 94.523077 149.661538 252.061538 291.446154 291.446154 322.953846l7.876923 7.876923 7.876923-7.876923c47.261538-39.384615 141.784615-126.030769 212.676923-212.676923 86.646154-94.523077 141.784615-212.676923 141.784616-283.569231 0-86.646154-31.507692-173.292308-102.4-244.184615zM708.923077 376.123077c0 7.876923-7.876923 7.876923-15.753846 7.876923h-157.538462l31.507693 157.538462c0 7.876923 0 15.753846-7.876924 15.753846h-7.876923c-7.876923 0-7.876923 0-15.753846-7.876923L315.076923 273.723077c0-7.876923-7.876923-7.876923 0-15.753846 0-7.876923 7.876923-7.876923 15.753846-7.876923h157.538462l-31.507693-157.538462c0-7.876923 0-15.753846 7.876924-15.753846h7.876923c7.876923 0 7.876923 0 15.753846 7.876923l228.430769 283.569231c-7.876923-7.876923-7.876923 0-7.876923 7.876923zM504.123077 155.569231l15.753846 102.4v15.753846s-7.876923 7.876923-15.753846 7.876923H362.338462l157.538461 196.923077h7.876923l-23.630769-110.276923v-15.753846s7.876923-7.876923 15.753846-7.876923h141.784615l-157.538461-189.046154z"  horiz-adv-x="1024" />

    
    <glyph glyph-name="saoyisaoerweimasaomasaomiao" unicode="&#58910;" d="M853.504 676.352c0 24.576-24.064 49.152-49.152 49.152h-182.272V786.432h158.72c79.36 0 134.656-44.544 134.144-121.856v-170.496h-60.928l-0.512 182.272z m-683.008 0v-182.784H109.568V664.576c0 77.312 44.544 121.856 121.856 121.856h170.496v-60.928H219.648c-25.088 0-49.152-24.576-49.152-49.152z m0-585.216c0-23.552 24.064-48.64 50.176-48.64h181.76v-60.928H219.648c-77.312 0-109.568 44.544-109.568 121.856v170.496h60.928l-0.512-182.784z m683.008 0.512v182.272h60.928v-170.496c0-77.312-44.544-121.856-121.856-121.856h-170.496v60.928H803.84c25.6 0 49.664 24.576 49.664 49.152zM1024 384c0-19.968-16.384-36.352-36.352-36.352H36.864c-20.48-0.512-36.864 15.872-36.864 36.352 0 19.968 16.384 36.352 36.352 36.352h950.784c20.48 0 36.864-16.384 36.864-36.352z"  horiz-adv-x="1024" />

    
    <glyph glyph-name="suning" unicode="&#59011;" d="M984.2688 448.7168L888.832 543.9488v134.7584c0 48.128-39.1168 87.2448-87.2448 87.2448h-134.7584L571.5968 861.184c-16.384 16.384-37.6832 24.9856-59.1872 25.6h-4.9152c-21.504-0.6144-42.8032-9.216-59.1872-25.6l-95.232-95.232h-134.7584C169.984 765.952 131.072 726.8352 131.072 678.7072v-134.7584l-95.232-95.232C18.8416 431.7184 10.24 409.3952 10.24 386.8672c0-22.3232 8.6016-44.6464 25.6-61.6448L131.072 229.9904V95.232c0-48.128 39.1168-87.2448 87.2448-87.2448h134.7584l95.232-95.232c34.2016-33.9968 89.2928-33.9968 123.4944 0l95.232 95.232h134.7584c48.128 0 87.2448 39.1168 87.2448 87.2448v134.7584l95.232 95.232c33.9968 33.9968 33.9968 89.2928 0 123.4944zM657.408 316.8256c-8.8064 73.9328-71.68 131.2768-148.0704 131.2768-76.1856 0-139.0592-57.344-147.8656-131.2768-61.6448-1.8432-111.2064-52.6336-111.2064-114.688 0-63.488 51.4048-114.688 114.8928-114.688h289.792c63.488 0 114.688 51.4048 114.688 114.688 0 62.464-49.9712 113.2544-112.2304 114.688zM628.3264 452.1984c0-20.48 16.5888-37.0688 37.0688-37.0688 20.48 0 37.0688 16.5888 37.0688 37.0688 0 20.48-16.5888 37.0688-37.0688 37.0688-20.48 0-37.0688-16.5888-37.0688-37.0688zM316.2112 452.1984c0-20.48 16.5888-37.0688 37.0688-37.0688 20.48 0 37.0688 16.5888 37.0688 37.0688 0 20.48-16.5888 37.0688-37.0688 37.0688-20.48 0-37.0688-16.5888-37.0688-37.0688zM599.6544 316.8256h-180.6336c-16.7936 0-31.744-22.7328-7.3728-40.7552l59.5968-44.6464s16.384-11.8784 37.888-11.6736c21.504-0.2048 37.888 11.6736 37.888 11.6736l59.5968 44.6464c24.576 18.0224 9.8304 40.7552-6.9632 40.7552z"  horiz-adv-x="1024" />

    
    <glyph glyph-name="gongyi" unicode="&#58881;" d="M1018.59665404 553.10296057c-3.28187609 35.40971144-13.47296249 69.78303921-30.055072 101.219953-20.38217544 37.65520519-48.19175236 70.81942154-82.04689029 97.41988706-36.27336206 29.36415044-74.10129765 49.22813471-112.10196229 59.07376165-16.40937779 4.1455267-49.91905626 11.74565991-92.75616916 4.31825843-30.22780238-5.18190905-53.5463918-15.89118662-68.22846837-24.1822427-1.03638234-0.86365196-7.4274028-6.39102046-7.25467241-14.50934483 0.17273038-10.70927889 11.57292951-16.23664741 12.78204225-16.92756897 8.29105476-3.97279631 16.23664741-1.55457219 31.78237456 2.93641531 12.78204224 3.80006592 25.21862373 8.98197499 38.17339637 11.22746874 24.87316293 4.1455267 50.26451572 2.93641531 74.79221788-3.45460514 32.12783535-8.46378514 64.42840111-25.56408451 96.03804527-50.95543728 57.69191852-46.46444979 90.16521465-103.63817847 96.5562351-169.96661253 2.93641531-33.16421637-0.34546078-66.67389485-10.01835732-98.45626808-8.6365142-28.67322886-20.20944506-48.88267392-27.46411747-57.51918947-2.59095452-3.1091457-262.89551077-309.18723016-343.56055926-378.10661873-27.11865667-23.31858941-58.0373793-30.22780238-91.71978682-20.38217545-25.21862373 7.4274028-43.52803448 21.59128685-45.94625996 23.66405154l-18.48214115 17.4457588 224.20392456 221.0947802c3.97279631 3.97279631 6.21829008 9.32743576 6.2182914 14.85480559 0 5.52736983-2.24549374 10.88200929-6.2182914 14.85480562-8.29105476 8.29105476-21.76401724 8.29105476-30.05507066 0l-224.03119551-221.0947802-0.69092022-0.69092021-52.85547158 50.60997647 0.51819118 0.51819119 224.20392456 221.09477885c3.97279631 3.97279631 6.21829008 9.32743576 6.21829139 14.8548056 0 5.52736983-2.24549374 10.88200929-6.21829139 14.85480562-8.29105476 8.29105476-21.76401724 8.29105476-30.055072 0L326.29362513 145.97765084000002l-0.69092156-0.86365062c-21.07309567 20.38217544-42.14619268 40.93707995-62.5283668 60.97379461l223.51300434 220.40385865c3.97279631 3.97279631 6.21829008 9.32743576 6.21829005 14.85480559 0 5.52736983-2.24549374 10.88200929-6.21829005 14.85480427-8.29105476 8.29105476-21.76401724 8.29105476-30.05507201 0L232.84653438 235.79740604999995c-18.13668169 17.96395131-36.27336206 36.10063168-54.06458165 54.41004242L401.77676457 510.09311594c5.18190905 5.18190905 7.4274028 12.60931185 5.70010024 19.69125388 31.60964417-31.09145301 86.71060949-81.18323966 130.23864396-100.0108416 32.99148597-14.33661443 73.75583685-2.24549374 101.39268339 29.8823416 29.01868964 33.68240754 33.33694675 76.86498257 11.40019912 110.20192932-22.45493881 34.02786831-63.56474914 75.82860023-96.7289655 107.09278362-1.90003297 0.69092156-31.60964417 27.98230864-31.78237456 29.19142003-44.73714721 39.90069894-89.64702347 75.48313943-108.30189636 85.50149677-13.12750305 7.25467242-64.60113149 27.11865667-127.82041851 25.7368149-35.92790128-0.51819118-71.33761273-8.6365142-104.15636963-23.49132114C142.50858935 775.92504334 107.96253119 747.59727393 78.9438402 710.11480046 23.32468503 637.9135357800001 1.9061286 561.5667443899999 15.03363161 482.4562694c8.11832438-49.57359548 30.055072-98.97445926 64.77386054-146.47529136 42.14619268-57.69191852 336.47861721-336.30588683 348.91519871-348.22427848l0.86365195-0.69092157c1.03638234-0.86365196 25.04589333-21.24582606 60.28287304-31.95510361 14.68207521-4.4909875 29.19142005-6.73648124 43.18257504-6.73648259 32.47329614 0 63.21928835 11.74565991 90.16521465 34.89152027 83.25600302 70.99215194 337.51499959 370.16102477 348.22427713 382.77033663 13.47296249 15.89118662 26.77319591 43.00984329 35.58244185 72.54672546 7.94559398 26.08227434 16.23664741 67.01935561 11.57292952 114.52018642zM114.18082127 360.50868018000006C58.38893571 436.85547025 12.96086692 555.17572393 112.79897947 684.5507159599999c45.42806744 58.72830086 103.9836379 89.3015627 174.11213791 90.85613621 54.23731337 1.20911273 98.28353902-16.063917 106.22913299-20.38217545 14.16388404-7.77286358 57.51918812-41.45527113 105.36548103-84.46511442 54.58277415-49.05540431 97.07442628-94.13801098 116.24748899-123.32943235 13.99115366-21.07309567 4.83644828-44.90987761-8.11832436-60.28287304-17.79122093-20.72763624-38.86431659-24.18224137-51.81908791-18.65487288-55.61915517 24.00951099-140.60246076 114.8656472-141.46611269 115.72929915-7.94559398 8.46378514-21.41855644 9.15470538-30.05507201 1.20911275-4.1455267-3.80006592-6.56375085-8.98197499-6.90921162-14.50934484-0.17273038-5.52736983 1.72730258-11.05473834 5.52736849-15.02753599 0.69092156-0.69092156 4.1455267-4.4909875 9.84562695-10.36381811-7.25467242 1.90003297-14.85480561-0.17273038-20.20944373-5.52736983L149.41780232 320.43525086c-12.43658147 12.78204224-24.18224137 26.08227434-35.23698105 40.07342932z m439.59860451 316.44190258l-32.81875557 30.22780238-8.63651555-11.74565991 20.72763623-21.41855778 20.72763489 2.93641531z"  horiz-adv-x="1024" />

    
    <glyph glyph-name="cart" unicode="&#58880;" d="M354.778212 74.89501299999995c-34.091446 0-61.703317-27.611871-61.703317-61.703317 0-34.091446 27.611871-61.703317 61.703317-61.703317s61.703317 27.611871 61.703317 61.703317C416.48153 47.283142 388.868635 74.89501299999995 354.778212 74.89501299999995L354.778212 74.89501299999995zM786.701432 74.89501299999995c-34.091446 0-61.703317-27.611871-61.703317-61.703317 0-34.091446 27.611871-61.703317 61.703317-61.703317s61.703317 27.611871 61.703317 61.703317C848.40475 47.283142 820.792878 74.89501299999995 786.701432 74.89501299999995L786.701432 74.89501299999995zM847.911516 105.74667199999999l-501.123278 0c-44.457538 0-83.546811 35.171034-88.976474 80.060407l-52.324716 368.368742-29.772071 172.151825c-1.851161 15.025205-15.549138 27.303856-28.939099 27.303856l-39.305191 0c-17.029862 0-30.851659 13.821797-30.851659 30.851659s13.821797 30.851659 30.851659 30.851659l39.305191 0c45.01217 0 84.533278-35.171034 89.994664-80.060407l29.709649-171.504072 52.540633-369.942587c1.727341-14.31503 14.685467-26.377764 27.76639-26.377764l501.123278 0c17.060561 0 30.851659-13.791098 30.851659-30.851659C878.763175 119.53776900000003 864.972077 105.74667199999999 847.911516 105.74667199999999zM385.351532 229.15330600000004c-16.011672 0-29.556153 12.341073-30.727839 28.599362-1.264806 16.999163 11.508102 31.776727 28.476565 33.010835l418.533258 30.851659c15.363919 0.092098 28.322046 12.155854 30.018687 25.88453l48.591695 278.035364c1.234107 10.366092-1.635243 21.719674-7.836479 28.753881-3.979638 4.504594-8.977465 6.78759-14.809287 6.78759l-534.165836 0c-17.029862 0-30.851659 13.821797-30.851659 30.851659s13.821797 30.851659 30.851659 30.851659l534.165836 0c23.570835 0 45.228087-9.779737 60.994166-27.581172 18.017352-20.331048 26.285666-48.992831 22.676465-78.70248l-48.622394-278.066063c-5.244444-43.25413-44.303019-78.425164-88.760556-78.425164l-416.250262-30.759561C386.863978 229.18400499999996 386.092405 229.15330600000004 385.351532 229.15330600000004z"  horiz-adv-x="1024" />

    
    <glyph glyph-name="qianbao" unicode="&#58883;" d="M862.9 720.2H699.4C691.3 783 633.6 831.8 563.8 831.8h-364c-68.9 0-126-47.6-135.2-111.5h-1.3v-657.2c0-69.8 61.2-126.6 136.5-126.6h624c75.3 0 136.5 56.8 136.5 126.6V629.8c0.1 49.9-43.7 90.4-97.4 90.4z m-663.1 75.4h364c47.4 0 87.1-31.6 95.8-75.4H103.7c7.7 42.8 47.9 75.4 96.1 75.4z m721.6-610.5H540.3c-53.8 0-97.5 40.6-97.5 90.4v97.2c0 49.9 43.7 90.4 97.5 90.4h381.1v-278z m0 314.3H540.3c-75.3 0-136.5-56.8-136.5-126.6v-97.2c0-69.8 61.2-126.6 136.5-126.6h381.1v-85.9c0-49.9-43.7-90.4-97.5-90.4h-624c-53.8 0-97.5 40.6-97.5 90.4v621h760.5c32.3 0 58.5-24.3 58.5-54.3v-130.4zM219.3 530.3h19.5v-316.5h-19.5zM215.3 110.5a13.8 12.8 0 1 1 27.6 0 13.8 12.8 0 1 1-27.6 0ZM595.7 262.8c36.5 0 66.2 27.6 66.2 61.4s-29.7 61.4-66.2 61.4-66.2-27.6-66.2-61.4 29.7-61.4 66.2-61.4z m0 95.7c20.4 0 37-15.4 37-34.3s-16.6-34.3-37-34.3-37 15.4-37 34.3 16.6 34.3 37 34.3z"  horiz-adv-x="1024" />

    
    <glyph glyph-name="Receivingaddress" unicode="&#58966;" d="M512 810.666667C323.498667 810.666667 170.666667 666.112 170.666667 487.765333 170.666667 309.461333 512-42.666667 512-42.666667s341.333333 352.128 341.333333 530.432C853.333333 666.112 700.501333 810.666667 512 810.666667z m0-483.541334c-90.154667 0-163.242667 70.016-163.242667 156.416S421.845333 640 512 640s163.242667-70.058667 163.242667-156.458667-73.088-156.416-163.242667-156.416z"  horiz-adv-x="1024" />

    
    <glyph glyph-name="yijianfankui" unicode="&#58901;" d="M854.6304 498.4832a25.6 25.6 0 0 1-25.6-25.6v-379.904c0-39.2192-30.8224-71.0656-68.7104-71.0656h-552.96c-37.888 0-68.7104 31.8464-68.7104 71.0656V648.3968c0 39.2192 30.8224 71.0656 68.7104 71.0656H588.8a25.6 25.6 0 0 1 0 51.2H207.36c-66.1504 0-119.9104-54.8864-119.9104-122.2656v-555.4176c0-67.3792 53.76-122.2656 119.9104-122.2656h552.96c66.1504 0 119.9104 54.8864 119.9104 122.2656v379.904a25.6 25.6 0 0 1-25.6 25.6zM692.6336 702.976L365.7728 367.7184c-3.7888-3.8912-6.0416-8.6016-6.8608-13.5168l-59.5968-151.2448c-3.6864-9.4208-1.536-20.1728 5.632-27.3408a25.74336 25.74336 0 0 1 27.2384-5.9392l155.648 58.88c3.6864 1.4336 6.7584 3.584 9.3184 6.2464l0.1024 0.1024 370.4832 379.2896c26.624 27.3408 26.624 71.7824 0 99.1232l-33.3824 34.2016a68.89472 68.89472 0 0 1-49.2544 20.8896c-18.6368 0-36.1472-7.3728-49.2544-20.8896l-43.1104-44.1344s-0.1024 0-0.1024-0.1024c0.1024-0.2048 0.1024-0.3072 0-0.3072z m18.0224-54.8864l59.2896-60.7232-291.1232-297.984L419.84 349.9008l290.816 298.1888zM393.8304 303.2064l39.6288-40.5504-65.3312-24.6784 25.7024 65.2288z m391.3728 413.7984c4.7104 0 9.216-1.9456 12.5952-5.4272l33.3824-34.2016c7.3728-7.5776 7.3728-19.968 0-27.5456l-25.2928-25.9072-59.392 60.8256 26.2144 26.8288c3.2768 3.4816 7.7824 5.4272 12.4928 5.4272z"  horiz-adv-x="1024" />

    
    <glyph glyph-name="qiandao" unicode="&#58952;" d="M1118.826667 521.28c15.68-43.52 24.426667-88.853333 24.426666-137.6 0-219.52-177.706667-397.226667-397.226666-397.226667-219.413333 0-397.226667 177.706667-397.226667 397.226667 0 219.52 177.706667 397.333333 397.226667 397.333333 111.466667 0 211.413333-45.76 284.053333-119.893333 6.613333-6.72 17.493333-7.04 24.213333-0.426667l0.106667 0.106667s6.933333 6.933333 6.933333 20.906667C982.933333 766.933333 869.653333 819.2 746.026667 819.2 505.493333 819.2 310.4 624 310.4 383.573333c0-240.533333 195.093333-435.52 435.626667-435.52 240.426667 0 435.626667 195.2 435.626666 435.626667 0 50.773333-9.28 98.453333-24.853333 143.04-3.093333 8.96-12.906667 13.973333-21.866667 10.773333-5.653333-2.026667-11.413333-6.933333-16.106666-16.213333zM773.866667 491.626667l-8.746667-10.453334c53.973333-55.786667 121.92-94.08 205.546667-114.986666-8.746667-12.16-17.386667-24.426667-24.426667-36.586667-34.88 12.16-66.24 26.133333-97.6 45.333333V348.8H634.453333v26.133333c-31.36-19.2-64.426667-36.586667-101.013333-52.266666-6.933333 12.16-15.68 22.613333-22.613333 31.36 87.146667 34.88 160.32 80.106667 217.813333 137.6h45.226667zM601.386667 599.68h40.106666c-6.933333-15.68-15.68-29.653333-22.613333-43.52h132.373333V524.8H599.68c-19.2-29.653333-41.813333-55.786667-62.72-76.693333-6.933333 8.746667-13.973333 17.386667-22.613333 27.84 33.066667 33.066667 64.426667 74.88 87.04 123.733333z m-69.653334-399.04h270.08c26.133333 43.52 48.746667 85.333333 66.24 127.146667l34.88-19.2c-20.906667-36.586667-41.813333-73.173333-62.72-108.053334h113.28v-33.066666H531.733333v33.173333z m45.226667 102.826667l29.653333 15.68c19.2-29.653333 34.88-61.013333 50.56-92.373334l-31.36-17.386666c-13.973333 33.066667-29.653333 64.426667-48.853333 94.08z m71.466667 142.826666c-12.16 17.386667-26.133333 33.066667-38.293334 48.746667l24.426667 17.386667c13.973333-13.973333 27.84-27.84 41.813333-45.333334l-27.946666-20.8z m94.08 10.453334c-29.653333-27.84-62.72-53.973333-101.013334-76.693334H838.4c-34.88 21.013333-66.24 47.146667-95.893333 76.693334z m-34.88-130.666667l31.36 8.746667c12.16-33.066667 22.613333-67.946667 31.36-101.013334l-34.88-10.453333c-6.933333 36.586667-15.573333 71.36-27.84 102.72z m94.08 273.6h38.293333c-6.933333-15.68-13.973333-29.653333-20.906667-43.52h146.346667V524.8H800c-8.746667-12.16-15.68-24.426667-22.613333-33.066667-12.16 6.933333-22.613333 12.16-33.066667 15.68 24.32 26.026667 41.706667 57.386667 57.386667 92.266667z m74.986666-158.613333c-13.973333 15.68-31.36 33.066667-52.266666 50.56l22.613333 20.906666c20.906667-17.386667 38.293333-33.066667 53.973333-48.746666l-24.32-22.72z m188.16 158.613333c0-9.066667 3.733333-18.133333 10.24-24.64 6.4-6.506667 15.466667-10.24 24.64-10.24 9.173333 0 18.24 3.733333 24.64 10.24 6.506667 6.4 10.24 15.466667 10.24 24.64 0 9.173333-3.733333 18.24-10.24 24.64-6.4 6.4-15.466667 10.24-24.64 10.24-9.173333 0-18.24-3.733333-24.64-10.24-6.506667-6.506667-10.24-15.573333-10.24-24.64z m0 0"  horiz-adv-x="1493" />

    
    <glyph glyph-name="suningyigou" unicode="&#60221;" d="M496.64 445.44c0 2.56-2.56 2.56-2.56 2.56h-12.8-2.56v-2.56l5.12-76.8c0-2.56 2.56-2.56 2.56-2.56h15.36v2.56l-5.12 76.8zM371.2 435.2c-2.56 0-2.56 2.56 0 0l-15.36 2.56s-2.56 0-2.56-2.56l-15.36-64v-2.56h15.36s2.56 0 2.56 2.56l15.36 64zM494.08 504.32h-23.04L460.8 512s-2.56 2.56-5.12 2.56-2.56 0-5.12-2.56l-7.68-7.68h-48.64l-7.68 7.68s-2.56 2.56-5.12 2.56-2.56 0-5.12-2.56l-7.68-7.68h-23.04c-2.56 0-2.56 0-2.56-2.56v-10.24c0-2.56 0-2.56 2.56-2.56h148.48c2.56 0 2.56 0 2.56 2.56v10.24s0 2.56-2.56 2.56zM422.4 463.36H409.6l2.56 10.24v2.56h-15.36c-2.56 0-2.56 0-2.56-2.56l-2.56-10.24h-43.52c-2.56 0-2.56 0-2.56-2.56v-10.24c0-2.56 0-2.56 2.56-2.56h40.96l-23.04-97.28v-2.56h15.36c2.56 0 2.56 0 2.56 2.56l23.04 97.28h15.36c17.92 0 30.72-12.8 30.72-30.72v-23.04c0-17.92-12.8-30.72-30.72-30.72h-10.24c-2.56 0-2.56 0-2.56-2.56l-2.56-10.24c0-2.56 0-2.56 2.56-2.56h12.8c25.6 0 46.08 15.36 46.08 43.52v25.6c0 28.16-17.92 46.08-46.08 46.08zM811.52 424.96h-87.04l5.12 12.8h79.36c20.48 0 35.84 15.36 35.84 35.84 0 20.48-15.36 35.84-35.84 35.84h-76.8c-20.48 0-35.84-15.36-35.84-35.84 0-12.8 7.68-25.6 17.92-30.72l-25.6-58.88s-2.56-2.56 2.56-2.56h10.24c2.56 0 2.56 0 5.12 2.56l10.24 25.6h20.48l-20.48-56.32s0-2.56 2.56-2.56h12.8c2.56 0 2.56 0 5.12 2.56l23.04 58.88h23.04l-23.04-56.32s0-2.56 2.56-2.56h12.8c2.56 0 2.56 0 5.12 2.56l23.04 58.88h7.68c12.8 0 20.48-10.24 20.48-20.48v-2.56c0-12.8-7.68-20.48-20.48-20.48h-2.56c-2.56 0-2.56 0-2.56-2.56l-2.56-7.68c0-2.56 0-2.56 2.56-2.56h10.24c20.48 0 33.28 15.36 33.28 35.84v5.12c-5.12 7.68-17.92 25.6-38.4 25.6z m-99.84 40.96h97.28c2.56 0 2.56 0 2.56 2.56v10.24c0 2.56 0 2.56-2.56 2.56h-97.28c2.56 10.24 12.8 15.36 20.48 15.36h69.12c12.8 0 23.04-10.24 23.04-23.04s-10.24-23.04-23.04-23.04h-69.12c-7.68 0-15.36 7.68-20.48 15.36zM637.44 504.32h-28.16l-7.68 7.68s-2.56 2.56-5.12 2.56-2.56 0-5.12-2.56l-7.68-7.68h-28.16c-23.04 0-35.84-12.8-35.84-33.28v-5.12c0-2.56 0-2.56 2.56-2.56h12.8c2.56 0 2.56 0 2.56 2.56v2.56c0 15.36 7.68 20.48 23.04 20.48h74.24c15.36 0 23.04-5.12 23.04-20.48v-2.56c0-2.56 0-2.56 2.56-2.56h12.8c2.56 0 2.56 0 2.56 2.56v5.12c-2.56 20.48-15.36 33.28-38.4 33.28zM670.72 450.56h-148.48c-2.56 0-2.56 0-2.56-2.56v-10.24c0-2.56 0-2.56 2.56-2.56h89.6v-38.4c0-20.48-12.8-33.28-30.72-33.28h-28.16c-2.56 0-2.56 0-2.56-2.56l-2.56-10.24c0-2.56 0-2.56 2.56-2.56h35.84c25.6 0 46.08 17.92 46.08 46.08V435.2h40.96c2.56 0 2.56 0 2.56 2.56l-5.12 12.8c2.56-2.56 2.56 0 0 0zM911.36 404.48v69.12c0 2.56 0 2.56-2.56 2.56H896s-2.56 0-2.56-2.56v-69.12l-28.16-51.2s0-2.56 2.56-2.56h12.8c2.56 0 2.56 0 2.56 2.56l17.92 33.28 17.92-33.28 2.56-2.56h12.8s2.56 0 2.56 2.56l-25.6 51.2zM921.6 476.16c0 10.24-7.68 20.48-20.48 20.48-10.24 0-20.48-7.68-20.48-20.48v-74.24c0-2.56 0-2.56-2.56-2.56h-10.24c-2.56 0-2.56 0-2.56 2.56v74.24c0 20.48 15.36 35.84 35.84 35.84 20.48 0 35.84-15.36 35.84-35.84v-74.24c0-2.56 0-2.56-2.56-2.56h-10.24c-2.56 0-2.56 0-2.56 2.56v74.24zM993.28 476.16h-10.24c-2.56 0-2.56 0-2.56-2.56v-84.48c0-2.56-2.56-7.68-7.68-7.68-2.56 0-7.68 2.56-7.68 7.68v84.48c0 2.56 0 2.56-2.56 2.56h-10.24c-2.56 0-2.56 0-2.56-2.56v-84.48c0-12.8 10.24-23.04 23.04-23.04s23.04 10.24 23.04 23.04v84.48c0 2.56-2.56 2.56-2.56 2.56zM985.6 506.88h-20.48V512c0 2.56 0 2.56-2.56 2.56h-10.24c-2.56 0-2.56 0-2.56-2.56v-17.92s0-2.56 2.56-2.56h28.16c17.92 0 28.16-12.8 28.16-25.6V384c0-17.92-12.8-17.92-12.8-17.92h-2.56c-2.56 0-2.56 0-2.56-2.56l-2.56-7.68c0-2.56 0-2.56 2.56-2.56h7.68c17.92 0 28.16 10.24 28.16 30.72v87.04c-2.56 17.92-17.92 35.84-40.96 35.84zM471.04 320H460.8c-2.56 0-2.56 0-2.56-2.56V281.6c0-7.68-7.68-12.8-17.92-12.8s-17.92 2.56-17.92 12.8v35.84s0 2.56-2.56 2.56H409.6s-2.56 0-2.56-2.56V281.6c0-17.92 15.36-23.04 30.72-23.04 17.92 0 30.72 7.68 30.72 23.04l2.56 38.4c2.56-2.56 0 0 0 0zM568.32 320h10.24s2.56 0 2.56-2.56v-56.32s0-2.56-2.56-2.56h-10.24s-2.56 0-2.56 2.56c0 7.68 0 46.08 2.56 58.88-2.56-2.56 0 0 0 0zM762.88 273.92c5.12 0 7.68-2.56 7.68-7.68 0-5.12-2.56-7.68-7.68-7.68-5.12 0-7.68 5.12-7.68 7.68 0 5.12 2.56 7.68 7.68 7.68zM883.2 320c-25.6 0-33.28-12.8-33.28-30.72s10.24-30.72 33.28-30.72c25.6 0 33.28 15.36 33.28 30.72 0 17.92-10.24 30.72-33.28 30.72z m0-53.76c-12.8 0-17.92 10.24-17.92 20.48 0 12.8 5.12 20.48 17.92 20.48 12.8 0 17.92-10.24 17.92-20.48s-5.12-20.48-17.92-20.48zM839.68 309.76v7.68s0 2.56-2.56 2.56c-35.84 5.12-53.76-10.24-53.76-30.72 0-20.48 15.36-38.4 53.76-30.72 0 0 2.56 0 2.56 2.56v7.68c0 2.56 0 2.56-2.56 2.56-15.36-2.56-38.4-2.56-38.4 20.48 0 17.92 25.6 17.92 40.96 17.92-2.56-2.56 0 0 0 0zM501.76 296.96v-35.84s0-2.56-2.56-2.56h-10.24s-2.56 0-2.56 2.56v56.32s0 2.56 2.56 2.56h10.24s2.56 0 2.56-2.56v-2.56c5.12 2.56 10.24 5.12 17.92 5.12 23.04 0 30.72-12.8 30.72-23.04v-35.84s0-2.56-2.56-2.56H537.6s-2.56 0-2.56 2.56v35.84c0 12.8-17.92 12.8-17.92 12.8 2.56 0-15.36 0-15.36-12.8zM614.4 296.96v-35.84s0-2.56-2.56-2.56h-10.24s-2.56 0-2.56 2.56v56.32s0 2.56 2.56 2.56h10.24c2.56 0 2.56 0 2.56-2.56v-2.56c5.12 2.56 10.24 5.12 17.92 5.12 23.04 0 30.72-12.8 30.72-23.04v-35.84s0-2.56-2.56-2.56h-10.24s-2.56 0-2.56 2.56v35.84c0 12.8-17.92 12.8-17.92 12.8s-15.36 0-15.36-12.8zM353.28 302.08c-2.56 10.24 23.04 10.24 35.84 7.68 0 0 2.56 0 2.56 2.56v7.68s0 2.56-2.56 2.56c-30.72 5.12-56.32 2.56-53.76-17.92 2.56-20.48 43.52-10.24 43.52-23.04 0-10.24-25.6-10.24-40.96-5.12-2.56 0-2.56 0-2.56-2.56v-7.68s0-2.56 2.56-2.56c17.92-5.12 58.88-7.68 58.88 15.36-2.56 23.04-40.96 12.8-43.52 23.04zM1024 261.12c0-2.56 0-2.56 0 0l-12.8-2.56s-2.56 0-2.56 2.56v38.4c0 5.12-5.12 10.24-12.8 10.24s-12.8-5.12-12.8-10.24v-38.4s0-2.56-2.56-2.56h-10.24c-2.56 0-2.56 0-2.56 2.56v38.4c0 5.12-5.12 10.24-12.8 10.24s-12.8-5.12-12.8-10.24v-38.4s0-2.56-2.56-2.56h-10.24s-2.56 0-2.56 2.56v56.32c0 2.56 2.56 2.56 2.56 2.56h7.68c2.56 0 2.56-2.56 2.56-2.56 2.56 2.56 10.24 5.12 15.36 5.12 7.68 0 15.36-5.12 20.48-7.68 5.12 5.12 10.24 7.68 20.48 7.68 15.36 0 25.6-7.68 25.6-17.92v-43.52zM737.28 320h-10.24c-2.56 0-2.56-2.56-2.56-2.56-5.12 2.56-10.24 5.12-17.92 5.12-23.04 0-30.72-17.92-30.72-30.72 0-15.36 7.68-30.72 30.72-30.72 7.68 0 12.8 2.56 17.92 5.12v-5.12c0-12.8-10.24-15.36-23.04-15.36-7.68 0-12.8 2.56-17.92 2.56-2.56 0-2.56 0-2.56-2.56v-7.68c0-2.56 0-2.56 2.56-2.56 5.12-2.56 15.36-2.56 23.04-2.56 17.92 0 33.28 7.68 33.28 28.16l-2.56 58.88c2.56-2.56 0 0 0 0z m-30.72-51.2c-12.8 0-17.92 10.24-17.92 20.48s5.12 20.48 17.92 20.48c12.8 0 17.92-10.24 17.92-20.48 0-12.8-5.12-20.48-17.92-20.48zM284.16 422.4L256 450.56v38.4c0 15.36-10.24 25.6-25.6 25.6H192l-28.16 28.16c-10.24 10.24-25.6 10.24-35.84 0l-28.16-28.16H61.44c-15.36 0-25.6-10.24-25.6-25.6v-38.4L7.68 422.4c-10.24-10.24-10.24-25.6 0-35.84L35.84 358.4v-38.4c0-12.8 10.24-25.6 25.6-25.6h38.4L128 263.68c10.24-10.24 25.6-10.24 35.84 0l28.16 28.16H230.4c15.36 0 25.6 10.24 25.6 25.6V358.4l28.16 28.16c10.24 7.68 10.24 25.6 0 35.84zM189.44 384c-2.56 20.48-20.48 38.4-43.52 38.4-23.04 0-40.96-17.92-43.52-38.4-17.92 0-33.28-15.36-33.28-33.28 0-17.92 15.36-33.28 33.28-33.28h84.48c17.92 0 33.28 15.36 33.28 33.28 2.56 17.92-12.8 30.72-30.72 33.28zM192 422.4m-10.24 0a10.24 10.24 0 1 1 20.48 0 10.24 10.24 0 1 1-20.48 0ZM99.84 422.4m-10.24 0a10.24 10.24 0 1 1 20.48 0 10.24 10.24 0 1 1-20.48 0ZM171.52 384h-51.2c-5.12 0-10.24-7.68-2.56-12.8l17.92-12.8s5.12-2.56 10.24-2.56c7.68-2.56 10.24 2.56 10.24 2.56l17.92 12.8c7.68 5.12 2.56 12.8-2.56 12.8z"  horiz-adv-x="1026" />

    
    <glyph glyph-name="bao" unicode="&#58882;" d="M825.66368633 635.70064717L666.46892041 635.70064717l0 40.27649238c0 43.99187344-35.8164167 79.77321386-79.77321387 79.77321387L438.18929404 755.75035342c-43.95679717 0-79.77411299-35.78134042-79.77411299-79.77321387l0-40.27649238L196.95664971 635.70064717c-43.39108125 0-78.64088115-35.88746836-78.64088116-79.98726884l0-462.93053292c0-44.09800137 35.2506999-79.98636885 78.64088116-79.98636885l628.70703662 0c43.39018125 0 78.64088115 35.88746836 78.64088115 79.98636885L904.30456748 555.7142774399999C904.30456748 599.81317881 869.05386758 635.70064717 825.66368633 635.70064717zM394.65790771 636.8329790099999l0 39.14416054c0 23.99573057 19.53655401 43.53228545 43.53138546 43.53228545l148.50551337 0c23.99663057 0 43.53228545-19.53745401 43.53228546-43.53228545l0-39.14416054c-0.77797266-0.36245391-2.68467979-0.7563876-3.69379601-1.13233272L398.35170371 635.70064717C397.34168838 636.07659229 395.43588037 636.4705251 394.65790771 636.8329790099999zM196.95664971 599.45791963l195.53282842 0c22.19605137-6.83446641 58.48554638-11.96278945 119.95257216-11.96278945 61.46882402 0 97.75831992 5.12832305 119.95347129 11.96278945l193.26816387 0c23.35896299 0 42.39995273-19.60670654 42.39995273-43.7445413l0-135.19813536L557.2802498 420.51524297c-13.71839854 3.94652461-28.90640127 6.47650898-45.96963222 6.47650898-17.06323096 0-32.25033457-2.52998438-45.97053223-6.47650898L154.55669698 420.51524297 154.55669698 555.7142774399999C154.55669698 579.85121309 173.59768672 599.45791963 196.95664971 599.45791963zM580.39547803 358.22707442c0-38.0828795-31.00288008-69.08665957-69.08486045-69.08665958-38.08198037 0-69.08486045 31.0046792-69.08486045 69.08665957 0 11.88724043 12.51591416 20.53397812 29.24637099 26.04724014l79.67697891 0C567.88046299 378.76105166 580.39547803 370.11341484 580.39547803 358.22707442zM825.66368633 49.03920321999999L196.95664971 49.03920321999999c-23.35896299 0-42.39995273 19.60760566-42.39995273 43.74454131L154.55669698 384.27431367l258.66822304 0c-4.42769766-7.93172198-7.24189043-16.57216406-7.24189043-26.04724013 0-58.07902237 47.28454102-105.32758799 105.32668887-105.32758799 58.04304697 0 105.32758799 47.24856563 105.32758798 105.32758799 0 9.47507607-2.8141919 18.11551729-7.24368867 26.04724013l258.66822305 0 0-291.49056914C868.06273906 68.64680977 849.02174932 49.03920321999999 825.66368633 49.03920321999999z"  horiz-adv-x="1024" />

    
    <glyph glyph-name="dingbu" unicode="&#58903;" d="M512 384m-499.512195 0a499.512195 499.512195 0 1 1 999.02439 0 499.512195 499.512195 0 1 1-999.02439 0ZM512-128C229.77561-128 0 101.77561 0 384S229.77561 896 512 896s512-229.77561 512-512-229.77561-512-512-512z m0 999.02439C243.512195 871.02439 24.97561 652.487805 24.97561 384s218.536585-487.02439 487.02439-487.02439 487.02439 218.536585 487.02439 487.02439S780.487805 871.02439 512 871.02439zM305.95122 39.336585l-3.746342 14.985366c7.492683 0 16.234146-1.24878 23.726829-1.24878 4.995122 0 8.741463 3.746341 8.741464 9.990244V217.912195H299.707317V234.146341h78.673171v-16.234146h-27.473171V59.317073c0-13.736585-6.243902-19.980488-18.731707-19.980488h-26.22439zM449.560976 165.463415v-39.960976c-1.24878-23.726829-6.243902-42.458537-17.482927-57.443902-11.239024-12.487805-28.721951-23.726829-53.697561-31.219513l-8.741464 13.736586c23.726829 7.492683 41.209756 16.234146 49.95122 27.47317 8.741463 12.487805 13.736585 27.473171 14.985366 46.204879v39.960975H449.560976z m49.951219 67.434146v-16.234146h-49.951219c-1.24878-7.492683-1.24878-16.234146-2.497561-23.72683h44.956097v-106.146341h-16.234146v91.160976h-68.682927v-92.409757h-16.234146v107.395122h38.712195c1.24878 7.492683 2.497561 14.985366 2.497561 23.72683h-47.453659v16.234146H499.512195z m1.248781-184.819512l-11.239025-12.487805c-9.990244 12.487805-23.726829 24.97561-39.960975 38.712195l11.239024 9.990244c16.234146-11.239024 29.970732-23.726829 39.960976-36.214634zM569.443902 159.219512h23.72683c6.243902 12.487805 12.487805 26.22439 16.234146 39.960976l14.985366-4.995122c-4.995122-12.487805-9.990244-23.726829-16.234146-34.965854h27.47317v-16.234146h-112.390244V159.219512h29.970732c-3.746341 11.239024-8.741463 22.478049-14.985366 32.468293l14.985366 4.995122c6.243902-9.990244 11.239024-22.478049 16.234146-37.463415z m3.746342 62.439025c-2.497561 7.492683-4.995122 13.736585-8.741464 19.980487l16.234147 2.497561c2.497561-6.243902 4.995122-14.985366 7.492683-23.726829h46.204878v-16.234146h-107.395122V221.658537h46.204878z m52.44878-183.570732h-16.234146v12.487805h-57.443902v-12.487805h-16.234147v84.917073h89.912195v-84.917073z m-16.234146 28.721951v41.209756h-57.443902v-41.209756h57.443902zM720.546341 234.146341v-12.487804c-7.492683-23.726829-14.985366-46.204878-22.478048-66.185366 16.234146-21.229268 24.97561-38.712195 26.22439-52.448781 0-13.736585-2.497561-23.726829-8.741463-28.721951-6.243902-4.995122-18.731707-8.741463-37.463415-8.741463l-4.995122 17.482926c6.243902 0 11.239024-1.24878 16.234146-1.24878 7.492683 0 13.736585 2.497561 14.985366 4.995122 2.497561 2.497561 3.746341 8.741463 3.746342 16.234146 0 13.736585-8.741463 29.970732-26.224391 52.448781 7.492683 17.482927 14.985366 38.712195 22.478049 63.687805H661.853659v-181.073171h-16.234147V234.146341h74.926829zM695.570732 674.965854H328.429268C319.687805 674.965854 312.195122 682.458537 312.195122 691.2 312.195122 701.190244 319.687805 708.682927 328.429268 708.682927h365.892683c9.990244 0 17.482927-7.492683 17.482927-17.482927 0-8.741463-7.492683-16.234146-16.234146-16.234146m-19.980488-193.560976l-149.853659 153.6c-3.746341 3.746341-7.492683 4.995122-12.487805 4.995122H512c-2.497561 0-4.995122 0-6.243902-1.24878-2.497561-1.24878-3.746341-2.497561-6.243903-3.746342l-134.868293-137.365854c-6.243902-6.243902-6.243902-17.482927 0-23.726829 3.746341-3.746341 7.492683-4.995122 11.239025-4.995122 3.746341 0 8.741463 1.24878 11.239024 4.995122l107.395122 109.892683v-221.034146c0-9.990244 7.492683-17.482927 16.234147-17.482927 8.741463 0 16.234146 7.492683 16.234146 17.482927V583.804878L649.365854 457.678049c3.746341-3.746341 7.492683-4.995122 11.239024-4.995122 3.746341 0 8.741463 1.24878 11.239024 4.995122 9.990244 6.243902 9.990244 17.482927 3.746342 23.726829"  horiz-adv-x="1024" />

    
    <glyph glyph-name="down-fill" unicode="&#59042;" d="M123.377 635.52c-45.217 0-74.14-60.382-39.496-95.028L473.12 151.22400000000005c22.332-22.32 55.532-22.32 77.854 0L940.23 540.481c33.765 33.775 7.434 95.028-38.932 95.028l-777.922 0.011z"  horiz-adv-x="1024" />

    
    <glyph glyph-name="down2" unicode="&#59050;" d="M936.486 559.0930000000001c13.839 14.39 13.393 37.274-0.999 51.113-14.39 13.84-37.274 13.393-51.113-0.999L513.984 235.42999999999995 138.417 607.625c-14.188 14.068-37.092 13.97-51.162-0.219-14.067-14.187-13.969-37.092 0.22-51.161L486.623 160.67999999999995c0.612-0.621 1.41-0.767 2.02-1.34 0.136-0.136 0.174-0.32 0.32-0.464l0.008-0.007c14.174-14.054 37.055-13.954 51.11 0.22l395.594 399.187c0.276 0.266 0.546 0.54 0.81 0.817z"  horiz-adv-x="1024" />

    
    <glyph glyph-name="gouwuche" unicode="&#58905;" d="M941.527805 144.215655H387.447784a69.584731 69.584731 0 0 0-69.399172 58.080055l-64.945749 442.930011a66.059105 66.059105 0 0 0 15.58698 52.698836 71.254765 71.254765 0 0 0 53.812192 24.308266h683.600401a70.512528 70.512528 0 0 0 53.626633-24.308266 66.059105 66.059105 0 0 0 15.58698-52.698836l-64.574631-442.744451a69.399172 69.399172 0 0 0-69.213613-58.265615zM322.502035 685.492085a34.328467 34.328467 0 0 1-25.79274-11.504675 28.947248 28.947248 0 0 1-6.865694-23.009352l64.574631-442.93001a32.287315 32.287315 0 0 1 33.029552-26.720537h554.45114a32.101756 32.101756 0 0 1 32.472874 26.163859l64.574631 442.93001a27.648333 27.648333 0 0 1-6.865693 23.009352 33.77179 33.77179 0 0 1-25.607181 11.504675zM972.330646-127.999814a122.654686 122.654686 0 1 0 122.654687 122.654686 122.840246 122.840246 0 0 0-122.654687-122.654686z m0 208.011957a85.54283 85.54283 0 1 1 85.54283-85.357271 85.54283 85.54283 0 0 1-85.54283 85.357271zM347.18142-127.999814a122.654686 122.654686 0 1 0 122.469127 122.654686 122.840246 122.840246 0 0 0-122.469127-122.654686z m0 208.011957a85.54283 85.54283 0 1 1 85.35727-85.357271 85.54283 85.54283 0 0 1-85.35727 85.357271zM284.647941 537.601336a18.555928 18.555928 0 0 0-17.442573 15.401421l-37.111856 215.248769a77.563781 77.563781 0 0 1-63.832394 64.57463L16.329217 858.618897a18.815711 18.815711 0 1 0 6.309016 37.111856l151.416375-25.79274a113.562282 113.562282 0 0 0 94.449675-95.74859l37.111857-214.506532a18.555928 18.555928 0 0 0-15.215861-21.339318 13.731387 13.731387 0 0 0-5.752338-0.742237z"  horiz-adv-x="1095" />

    


  </font>
</defs>
</svg>
